<?xml version="1.0" encoding="UTF-8"?>
<!DOCTYPE svg PUBLIC "-//W3C//DTD SVG 1.1//EN" "http://www.w3.org/Graphics/SVG/1.1/DTD/svg11.dtd">
<svg xmlns="http://www.w3.org/2000/svg" version="1.1" width="398px" height="398px" style="shape-rendering:geometricPrecision; text-rendering:geometricPrecision; image-rendering:optimizeQuality; fill-rule:evenodd; clip-rule:evenodd" xmlns:xlink="http://www.w3.org/1999/xlink">
<g><path style="opacity:0.994" fill="#502d16" d="M 201.5,14.5 C 211.194,13.1127 218.694,16.446 224,24.5C 266,109.167 308,193.833 350,278.5C 354.18,290.297 351.013,299.464 340.5,306C 293.833,329 247.167,352 200.5,375C 190.852,378.338 182.685,376.172 176,368.5C 133.667,283.167 91.3333,197.833 49,112.5C 45.3684,102.423 47.535,93.9225 55.5,87C 104.135,62.5155 152.802,38.3489 201.5,14.5 Z"/></g>
<g><path style="opacity:1" fill="#e5e2e0" d="M 209.5,43.5 C 211.687,44.0485 212.354,45.2152 211.5,47C 165.256,69.7053 119.089,92.5386 73,115.5C 71.8118,114.437 71.3118,113.103 71.5,111.5C 117.805,89.3472 163.805,66.6806 209.5,43.5 Z"/></g>
<g><path style="opacity:1" fill="#f5f3f2" d="M 201.5,77.5 C 210.306,77.464 212.639,81.2974 208.5,89C 205.055,91.2225 202.055,90.7225 199.5,87.5C 197.81,83.6309 198.476,80.2975 201.5,77.5 Z"/></g>
<g><path style="opacity:1" fill="#eeebe9" d="M 145.5,86.5 C 146.496,86.4142 147.329,86.7476 148,87.5C 184.728,162.623 221.728,237.623 259,312.5C 259.699,314.074 259.365,315.407 258,316.5C 219.767,240.534 181.934,164.367 144.5,88C 145.056,87.6174 145.389,87.1174 145.5,86.5 Z"/></g>
<g><path style="opacity:1" fill="#fafaf9" d="M 209.5,93.5 C 218.024,93.3448 220.358,97.0115 216.5,104.5C 209.202,106.701 206.036,104.034 207,96.5C 208.045,95.6266 208.878,94.6266 209.5,93.5 Z"/></g>
<g><path style="opacity:1" fill="#fbfbfa" d="M 217.5,109.5 C 226.818,109.655 228.818,113.488 223.5,121C 214.096,121.141 212.096,117.308 217.5,109.5 Z"/></g>
<g><path style="opacity:1" fill="#faf9f8" d="M 225.5,125.5 C 232.665,124.497 235.498,127.497 234,134.5C 230.333,138.5 226.667,138.5 223,134.5C 221.93,130.858 222.764,127.858 225.5,125.5 Z"/></g>
<g><path style="opacity:1" fill="#f6f4f2" d="M 103.5,126.5 C 108.713,125.762 111.713,127.928 112.5,133C 111.089,138.141 107.755,139.808 102.5,138C 98.3759,133.695 98.7092,129.862 103.5,126.5 Z"/></g>
<g><path style="opacity:1" fill="#f5f3f2" d="M 234.5,140.5 C 241.088,140.657 243.588,143.99 242,150.5C 238.254,154.393 234.588,154.393 231,150.5C 229.581,146.082 230.748,142.749 234.5,140.5 Z"/></g>
<g><path style="opacity:1" fill="#f6f4f3" d="M 110.5,142.5 C 119.968,142.285 122.301,146.118 117.5,154C 111.984,155.925 108.651,154.091 107.5,148.5C 107.984,146.199 108.984,144.199 110.5,142.5 Z"/></g>
<g><path style="opacity:1" fill="#f5f3f2" d="M 242.5,156.5 C 248.873,156.368 251.373,159.368 250,165.5C 246.74,170.285 243.073,170.619 239,166.5C 237.581,162.082 238.748,158.749 242.5,156.5 Z"/></g>
<g><path style="opacity:1" fill="#f5f3f2" d="M 118.5,158.5 C 127.16,157.687 129.827,161.187 126.5,169C 120.489,172.183 116.823,170.516 115.5,164C 115.863,161.808 116.863,159.974 118.5,158.5 Z"/></g>
<g><path style="opacity:1" fill="#f6f4f3" d="M 249.5,172.5 C 256.38,171.876 259.214,174.876 258,181.5C 254.775,186.387 251.108,186.72 247,182.5C 245.861,178.579 246.695,175.246 249.5,172.5 Z"/></g>
<g><path style="opacity:1" fill="#f3f0ee" d="M 127.5,173.5 C 133.702,173.531 136.535,176.531 136,182.5C 131.951,187.818 127.951,187.818 124,182.5C 123.333,180.833 123.333,179.167 124,177.5C 125.376,176.295 126.542,174.962 127.5,173.5 Z"/></g>
<g><path style="opacity:1" fill="#faf9f8" d="M 257.5,188.5 C 266.823,188.741 268.823,192.574 263.5,200C 256,201.833 253.167,199 255,191.5C 256.045,190.627 256.878,189.627 257.5,188.5 Z"/></g>
<g><path style="opacity:1" fill="#f2f0ee" d="M 135.5,189.5 C 141.653,189.484 144.486,192.484 144,198.5C 139.902,203.804 135.902,203.804 132,198.5C 131.333,196.833 131.333,195.167 132,193.5C 133.376,192.295 134.542,190.962 135.5,189.5 Z"/></g>
<g><path style="opacity:1" fill="#f9f8f7" d="M 265.5,204.5 C 274.818,204.655 276.818,208.488 271.5,216C 264.333,217.5 261.5,214.667 263,207.5C 263.698,206.309 264.531,205.309 265.5,204.5 Z"/></g>
<g><path style="opacity:1" fill="#f4f2f0" d="M 143.5,205.5 C 150.549,205.691 153.049,209.025 151,215.5C 145.446,220.152 141.613,218.985 139.5,212C 139.722,209.038 141.056,206.871 143.5,205.5 Z"/></g>
<g><path style="opacity:1" fill="#f6f4f3" d="M 272.5,220.5 C 282.267,220.073 284.6,223.906 279.5,232C 272.991,233.478 269.825,230.978 270,224.5C 270.662,223.016 271.496,221.683 272.5,220.5 Z"/></g>
<g><path style="opacity:1" fill="#f8f7f6" d="M 150.5,221.5 C 159.306,221.464 161.639,225.297 157.5,233C 147.415,233.76 145.082,229.927 150.5,221.5 Z"/></g>
<g><path style="opacity:1" fill="#f4f2f0" d="M 282.5,235.5 C 288.133,235.961 290.633,238.961 290,244.5C 286.098,249.804 282.098,249.804 278,244.5C 277.377,240.412 278.877,237.412 282.5,235.5 Z"/></g>
<g><path style="opacity:1" fill="#f9f7f7" d="M 158.5,237.5 C 166.597,236.86 169.263,240.36 166.5,248C 158.758,251.248 155.258,248.748 156,240.5C 157.045,239.627 157.878,238.627 158.5,237.5 Z"/></g>
<g><path style="opacity:1" fill="#f3f0ee" d="M 289.5,251.5 C 297.543,252.02 299.876,255.854 296.5,263C 289.388,265.554 285.888,263.054 286,255.5C 287.376,254.295 288.542,252.962 289.5,251.5 Z"/></g>
<g><path style="opacity:1" fill="#faf9f9" d="M 166.5,253.5 C 173.665,252.497 176.498,255.497 175,262.5C 171.333,266.5 167.667,266.5 164,262.5C 162.927,258.9 163.76,255.9 166.5,253.5 Z"/></g>
<g><path style="opacity:1" fill="#f8f7f6" d="M 174.5,269.5 C 182,268.166 184.833,271.166 183,278.5C 179.333,282.5 175.667,282.5 172,278.5C 170.93,274.858 171.764,271.858 174.5,269.5 Z"/></g>
<g><path style="opacity:1" fill="#f5f3f2" d="M 319.5,273.5 C 329.267,273.073 331.6,276.906 326.5,285C 316.858,285.545 314.525,281.712 319.5,273.5 Z"/></g>
<g><path style="opacity:1" fill="#f5f3f2" d="M 303.5,281.5 C 312.307,281.465 314.64,285.298 310.5,293C 302.685,295.522 299.518,292.689 301,284.5C 302.045,283.627 302.878,282.627 303.5,281.5 Z"/></g>
<g><path style="opacity:1" fill="#f7f5f4" d="M 183.5,284.5 C 190.369,284.538 192.869,287.871 191,294.5C 185.344,299.129 181.511,297.963 179.5,291C 179.722,288.038 181.056,285.871 183.5,284.5 Z"/></g>
<g><path style="opacity:1" fill="#f5f3f2" d="M 287.5,289.5 C 293.873,289.368 296.373,292.368 295,298.5C 291.74,303.285 288.073,303.619 284,299.5C 282.581,295.082 283.748,291.749 287.5,289.5 Z"/></g>
<g><path style="opacity:1" fill="#f6f4f3" d="M 191.5,300.5 C 198.369,300.538 200.869,303.871 199,310.5C 193.019,315.215 189.186,313.881 187.5,306.5C 187.67,303.674 189.003,301.674 191.5,300.5 Z"/></g>
<g><path style="opacity:1" fill="#f3f0ee" d="M 222.5,321.5 C 230.543,322.02 232.876,325.854 229.5,333C 222.388,335.554 218.888,333.054 219,325.5C 220.376,324.295 221.542,322.962 222.5,321.5 Z"/></g>
<g><path style="opacity:1" fill="#faf8f8" d="M 205.5,330.5 C 214.818,330.655 216.818,334.488 211.5,342C 204.333,343.5 201.5,340.667 203,333.5C 203.698,332.309 204.531,331.309 205.5,330.5 Z"/></g>
<g><path style="opacity:1" fill="#faf9f8" d="M 188.5,338.5 C 197.818,338.655 199.818,342.488 194.5,350C 188.963,351.985 185.963,350.152 185.5,344.5C 185.628,342.045 186.628,340.045 188.5,338.5 Z"/></g>
</svg>
